<?xml version="1.0" encoding="UTF-8" standalone="no"?>
<svg
   xmlns:dc="http://purl.org/dc/elements/1.1/"
   xmlns:cc="http://creativecommons.org/ns#"
   xmlns:rdf="http://www.w3.org/1999/02/22-rdf-syntax-ns#"
   xmlns:svg="http://www.w3.org/2000/svg"
   xmlns="http://www.w3.org/2000/svg"
   xmlns:sodipodi="http://sodipodi.sourceforge.net/DTD/sodipodi-0.dtd"
   xmlns:inkscape="http://www.inkscape.org/namespaces/inkscape"
   sodipodi:docname="planet saturn thingie.svg"
   inkscape:version="1.0 (4035a4fb49, 2020-05-01)"
   id="svg8"
   version="1.1"
   viewBox="0 0 16.415104 9.209549"
   height="9.209549mm"
   width="16.415104mm">
  <defs
     id="defs2" />
  <sodipodi:namedview
     inkscape:window-maximized="0"
     inkscape:window-y="0"
     inkscape:window-x="1941"
     inkscape:window-height="1008"
     inkscape:window-width="1518"
     fit-margin-bottom="0"
     fit-margin-right="0"
     fit-margin-left="0"
     fit-margin-top="0"
     showgrid="false"
     inkscape:document-rotation="0"
     inkscape:current-layer="layer1"
     inkscape:document-units="mm"
     inkscape:cy="24.077557"
     inkscape:cx="34.848079"
     inkscape:zoom="8"
     inkscape:pageshadow="2"
     inkscape:pageopacity="0.0"
     borderopacity="1.0"
     bordercolor="#666666"
     pagecolor="#ffffff"
     id="base" />
  <metadata
     id="metadata5">
    <rdf:RDF>
      <cc:Work
         rdf:about="">
        <dc:format>image/svg+xml</dc:format>
        <dc:type
           rdf:resource="http://purl.org/dc/dcmitype/StillImage" />
        <dc:title></dc:title>
      </cc:Work>
    </rdf:RDF>
  </metadata>
  <g
     transform="translate(-2.1396251,-2.302781)"
     id="layer1"
     inkscape:groupmode="layer"
     inkscape:label="Layer 1">
    <path
       d="m 6.0166373,6.0955927 a 4.4056077,4.4056077 0 0 0 -0.00123,0.00753 4.4056077,4.4056077 0 0 0 -0.015623,0.089545 4.4056077,4.4056077 0 0 0 -0.01382,0.090021 4.4056077,4.4056077 0 0 0 -0.011698,0.089836 4.4056077,4.4056077 0 0 0 -0.010384,0.090476 4.4056077,4.4056077 0 0 0 -0.00826,0.090289 4.4056077,4.4056077 0 0 0 -0.00614,0.090105 4.4056077,4.4056077 0 0 0 -0.00466,0.091236 4.4056077,4.4056077 0 0 0 -0.0027,0.09056 4.4056077,4.4056077 0 0 0 -4.142e-4,0.090867 4.4056077,4.4056077 0 0 0 0.00105,0.090362 4.4056077,4.4056077 0 0 0 0.00286,0.090836 4.4056077,4.4056077 0 0 0 0.00497,0.090652 4.4056077,4.4056077 0 0 0 0.0066,0.090636 4.4056077,4.4056077 0 0 0 0.00784,0.081469 1.5957828,5.5026993 71 0 1 3.8117963,-1.9437611 1.5957828,5.5026993 71 0 1 0.050327,-0.017335 1.5957828,5.5026993 71 0 1 4.2517356,-0.8327393 4.4056077,4.4056077 0 0 0 -0.0064,-0.00988 4.4056077,4.4056077 0 0 0 -0.04913,-0.075994 4.4056077,4.4056077 0 0 0 -0.05059,-0.075492 4.4056077,4.4056077 0 0 0 -0.05284,-0.074167 4.4056077,4.4056077 0 0 0 -0.05347,-0.072857 4.4056077,4.4056077 0 0 0 -0.05545,-0.072181 4.4056077,4.4056077 0 0 0 -0.05658,-0.070696 4.4056077,4.4056077 0 0 0 -0.05837,-0.069533 4.4056077,4.4056077 0 0 0 -0.05967,-0.06854 4.4056077,4.4056077 0 0 0 -0.06129,-0.066891 4.4056077,4.4056077 0 0 0 -0.0621,-0.066062 4.4056077,4.4056077 0 0 0 -0.06388,-0.064901 4.4056077,4.4056077 0 0 0 -0.06532,-0.062763 4.4056077,4.4056077 0 0 0 -0.06631,-0.062429 4.4056077,4.4056077 0 0 0 -0.05819,-0.051559 2.4443845,8.4289121 71 0 0 -3.7085593,0.9943978 2.4443845,8.4289121 71 0 0 -0.043971,0.015141 2.4443845,8.4289121 71 0 0 -3.4903043,1.4838229 z"
       style="fill:#3b3d8e;fill-opacity:1;stroke-width:0.143792"
       id="path897" />
    <circle
       transform="rotate(-19)"
       r="4.4056077"
       cy="9.8999014"
       cx="7.5344748"
       id="circle839"
       style="opacity:1;fill:#3b3d8e;fill-opacity:1;stroke:#ffffff;stroke-width:0.396875;stroke-miterlimit:4;stroke-dasharray:none;stroke-opacity:1" />
    <path
       d="M 6.0166373,6.0955927 A 2.4443844,8.4289121 71 0 0 2.3774666,9.6517818 2.4443844,8.4289121 71 0 0 7.4349013,10.212943 2.4443844,8.4289121 71 0 0 11.142485,9.2188817 2.4443844,8.4289121 71 0 0 14.67725,7.7197495 2.4443844,8.4289121 71 0 0 18.316912,4.1633914 2.4443844,8.4289121 71 0 0 13.259476,3.6022305 a 4.4056077,4.4056077 0 0 1 0.05819,0.051559 4.4056077,4.4056077 0 0 1 0.06631,0.06243 4.4056077,4.4056077 0 0 1 0.06534,0.062764 4.4056077,4.4056077 0 0 1 0.06389,0.064899 4.4056077,4.4056077 0 0 1 0.0621,0.066062 4.4056077,4.4056077 0 0 1 0.06129,0.066891 4.4056077,4.4056077 0 0 1 0.05967,0.068537 4.4056077,4.4056077 0 0 1 0.05836,0.069535 4.4056077,4.4056077 0 0 1 0.05658,0.070697 4.4056077,4.4056077 0 0 1 0.05544,0.072182 4.4056077,4.4056077 0 0 1 0.05349,0.072855 4.4056077,4.4056077 0 0 1 0.05285,0.074165 4.4056077,4.4056077 0 0 1 0.0506,0.07549 4.4056077,4.4056077 0 0 1 0.04913,0.075996 4.4056077,4.4056077 0 0 1 0.0064,0.00988 1.5957828,5.5026993 71 0 1 1.471,0.5499566 1.5957828,5.5026993 71 0 1 -0.820662,1.3390143 1.5957828,5.5026993 71 0 1 -3.863118,1.961429 1.5957828,5.5026993 71 0 1 -4.2507625,0.832401 1.5957828,5.5026993 71 0 1 -1.4710026,-0.5499558 1.5957828,5.5026993 71 0 1 0.8205794,-1.3390113 4.4056077,4.4056077 0 0 1 -0.00783,-0.08147 4.4056077,4.4056077 0 0 1 -0.0066,-0.090637 4.4056077,4.4056077 0 0 1 -0.00497,-0.090651 4.4056077,4.4056077 0 0 1 -0.00286,-0.090834 4.4056077,4.4056077 0 0 1 -0.00105,-0.090361 4.4056077,4.4056077 0 0 1 4.142e-4,-0.090867 4.4056077,4.4056077 0 0 1 0.0027,-0.09056 4.4056077,4.4056077 0 0 1 0.00466,-0.091236 4.4056077,4.4056077 0 0 1 0.00614,-0.090105 4.4056077,4.4056077 0 0 1 0.00827,-0.090291 4.4056077,4.4056077 0 0 1 0.010383,-0.090478 4.4056077,4.4056077 0 0 1 0.011697,-0.089834 4.4056077,4.4056077 0 0 1 0.013821,-0.09002 4.4056077,4.4056077 0 0 1 0.015623,-0.089543 4.4056077,4.4056077 0 0 1 0.00123,-0.00753 z"
       style="fill:#3b3d8e;fill-opacity:1;stroke:#fcfcfc;stroke-width:0.396875;stroke-miterlimit:4;stroke-dasharray:none;stroke-opacity:1"
       id="path12" />
  </g>
</svg>
